<svg xmlns="http://www.w3.org/2000/svg" viewBox="0 9.470000267028809 71.19000244140625 35.78999710083008" data-asc="0.9052734375" width="71.19000244140625" height="35.78999710083008"><defs/><g fill="#000000"><g transform="translate(0, 0)"><path d="M0 45.26L0 9.47L7.13 9.47L15.60 34.81Q16.77 38.35 17.31 40.11Q17.92 38.16 19.21 34.38L27.78 9.47L34.16 9.47L34.16 45.26L29.59 45.26L29.59 15.31L19.19 45.26L14.92 45.26L4.57 14.79L4.57 45.26L0 45.26ZM41.60 45.26L41.60 9.47L46.34 9.47L46.34 27.22L64.11 9.47L70.53 9.47L55.52 23.97L71.19 45.26L64.94 45.26L52.20 27.15L46.34 32.86L46.34 45.26L41.60 45.26Z"/></g></g></svg>